<?xml version="1.0" encoding="utf-8"?>
<!-- Generator: Adobe Illustrator 19.2.1, SVG Export Plug-In . SVG Version: 6.00 Build 0)  -->
<svg version="1.1" id="Capa_1" xmlns="http://www.w3.org/2000/svg" xmlns:xlink="http://www.w3.org/1999/xlink" x="0px" y="0px"
	 viewBox="0 0 75 150" style="enable-background:new 0 0 75 150;" xml:space="preserve">
<style type="text/css">
	.st0{fill:#90BF3C;}
	.st1{fill:url(#SVGID_1_);}
	.st2{fill:url(#SVGID_2_);}
</style>
<path class="st0" d="M0,0.4V150c41.3,0,74.8-33.5,74.8-74.8C74.8,33.9,41.3,0.4,0,0.4z"/>
<g id="icon">
	<linearGradient id="SVGID_1_" gradientUnits="userSpaceOnUse" x1="0.4151" y1="84.1397" x2="0.4151" y2="12.3333">
		<stop  offset="0" style="stop-color:#CCD1D9"/>
		<stop  offset="1" style="stop-color:#FCFDFD"/>
	</linearGradient>
	<path class="st1" d="M0.4,84.1c3.7,0,6.7-4,6.7-9V21.3c0-4.9-3-9-6.7-9c-3.7,0-6.7,4-6.7,9v53.9C-6.3,80.1-3.3,84.1,0.4,84.1z"/>
	<linearGradient id="SVGID_2_" gradientUnits="userSpaceOnUse" x1="0.415" y1="129.0183" x2="0.415" y2="17.7282">
		<stop  offset="0" style="stop-color:#CCD1D9"/>
		<stop  offset="1" style="stop-color:#FCFDFD"/>
	</linearGradient>
	<path class="st2" d="M16.9,24.2v0.6c0,2.5,1.4,4.7,3.6,5.8c15.8,7.9,26.3,24.8,24.7,44c-1.9,22.1-20.2,39.8-42.3,40.9
		c-25.9,1.3-47.3-19.2-47.3-44.8c0-17.6,10.1-32.8,24.8-40.1c2.2-1.1,3.6-3.3,3.6-5.8v-0.6c0-4.9-5.1-7.9-9.5-5.8
		c-19.7,9.8-33.2,30.4-32.4,54.2c1,29.8,24.8,54.4,54.6,56.3c33.9,2.1,62.1-24.8,62.1-58.2c0-22.9-13.2-42.7-32.4-52.2
		C22,16.3,16.9,19.4,16.9,24.2z"/>
</g>
</svg>
