<?xml version="1.0" encoding="utf-8"?>
<!-- Generator: Adobe Illustrator 19.2.1, SVG Export Plug-In . SVG Version: 6.00 Build 0)  -->
<svg version="1.1" id="Capa_1" xmlns="http://www.w3.org/2000/svg" xmlns:xlink="http://www.w3.org/1999/xlink" x="0px" y="0px"
	 viewBox="0 0 106.6 106.5" style="enable-background:new 0 0 106.6 106.5;" xml:space="preserve">
<style type="text/css">
	.st0{fill:#3171FF;stroke:#3171FF;stroke-miterlimit:10;}
	.st1{fill:#1359D3;stroke:#FFFFFF;stroke-width:1.8348;stroke-linecap:round;stroke-linejoin:round;stroke-miterlimit:10;}
	.st2{fill:#FFFFFF;}
</style>
<polygon class="st0" points="74,99.7 70.8,103.6 65.9,102.5 62.1,105.8 57.4,103.9 53,106.5 48.7,103.9 44,105.7 40.2,102.4 
	35.3,103.4 32.1,99.4 27,99.6 24.6,95.2 19.6,94.5 17.9,89.7 13.1,88.2 12.2,83.2 7.7,80.9 7.8,75.9 3.7,72.8 4.6,67.8 1.1,64.1 
	2.8,59.4 0,55.2 2.5,50.8 0.4,46.1 3.6,42.2 2.4,37.3 6.2,34 5.8,28.9 10.1,26.3 10.6,21.2 15.3,19.4 16.6,14.5 21.6,13.4 23.7,8.8 
	28.7,8.6 31.6,4.5 36.6,5.1 40.1,1.5 45,3 49.1,0 53.6,2.3 58.1,0 62.2,3.1 67,1.6 70.5,5.3 75.6,4.7 78.4,8.9 83.4,9.1 85.5,13.8 
	90.4,14.9 91.7,19.8 96.4,21.7 96.8,26.7 101.1,29.4 100.6,34.5 104.4,37.8 103.1,42.7 106.3,46.7 104.2,51.3 106.6,55.7 
	103.8,59.9 105.4,64.7 101.9,68.3 102.7,73.3 98.6,76.3 98.6,81.4 94.1,83.7 93.2,88.6 88.3,90.1 86.6,94.9 81.6,95.5 79.1,99.9 "/>
<polygon class="st1" points="72.3,95.8 69.4,99.4 64.8,98.4 61.3,101.5 57,99.7 53.1,102.1 49.1,99.7 44.8,101.4 41.3,98.3 
	36.8,99.3 33.9,95.6 29.2,95.8 27,91.7 22.4,91.1 20.8,86.7 16.4,85.3 15.6,80.8 11.5,78.6 11.5,74 7.8,71.2 8.6,66.6 5.4,63.2 
	7,58.9 4.4,55 6.7,51 4.8,46.7 7.7,43.1 6.6,38.6 10.1,35.6 9.7,30.9 13.7,28.5 14.1,23.9 18.4,22.2 19.6,17.7 24.2,16.7 26.1,12.5 
	30.8,12.3 33.4,8.5 38,9.1 41.2,5.8 45.7,7.1 49.4,4.4 53.6,6.5 57.7,4.4 61.5,7.2 65.9,5.9 69.1,9.3 73.7,8.7 76.3,12.6 80.9,12.8 
	82.8,17 87.4,18 88.5,22.5 92.8,24.3 93.2,28.9 97.1,31.4 96.7,36 100.2,39.1 99,43.6 101.9,47.2 100,51.5 102.2,55.5 99.6,59.4 
	101.1,63.8 97.9,67.1 98.6,71.7 94.9,74.4 94.9,79.1 90.7,81.2 89.9,85.7 85.4,87.1 83.9,91.4 79.3,92 77,96.1 "/>
<g>
	<path class="st2" d="M22.7,73l-5.2-14.6l3.9-1.4l4.9,4.3c1.4,1.2,2.9,2.7,4.2,4.2l0.1,0c-0.9-1.9-1.7-3.8-2.5-6l-1.5-4.3l3-1.1
		l5.2,14.6L31.3,70l-5.1-4.5c-1.4-1.2-3-2.8-4.4-4.2l-0.1,0c0.8,1.9,1.6,3.9,2.4,6.3l1.6,4.4L22.7,73z"/>
	<path class="st2" d="M35.7,51.9l3,8.4c0.9,2.5,2.3,3.4,4,2.8c1.7-0.6,2.3-2.2,1.3-4.8l-3-8.4l3.3-1.2l2.9,8.2
		c1.6,4.5,0.1,7.5-3.7,8.8c-3.7,1.3-6.6,0.1-8.2-4.6l-2.9-8.1L35.7,51.9z"/>
	<path class="st2" d="M58.9,53.2l-5.4,1.9l1.2,3.5l6-2.1l1,2.7l-9.3,3.3l-5.2-14.6l9-3.2l1,2.7l-5.7,2l1.1,3l5.4-1.9L58.9,53.2z"/>
	<path class="st2" d="M67.6,57l-9.9-12.9l3.6-1.3l4,5.5c1.1,1.6,2.2,3.1,3.2,4.8l0.1,0c-0.3-1.9-0.4-3.8-0.5-5.6l-0.4-6.9l3.5-1.3
		l0.3,16.4L67.6,57z"/>
	<path class="st2" d="M88.4,41.2c1.7,4.8-0.2,8.7-4.4,10.2c-4.3,1.5-8-0.8-9.5-5c-1.6-4.4,0.1-8.6,4.4-10.2
		C83.4,34.6,87,37.1,88.4,41.2z M78,45.1c1,2.9,3.1,4.4,5.3,3.6c2.2-0.8,2.8-3.4,1.7-6.2c-0.9-2.6-3-4.4-5.3-3.6
		C77.5,39.7,77,42.3,78,45.1z"/>
</g>
</svg>
